<svg width="19" height="19" viewBox="0 0 19 19" fill="none" xmlns="http://www.w3.org/2000/svg">
<path fill-rule="evenodd" clip-rule="evenodd" d="M11.4798 2.35373C11.968 1.86557 12.7594 1.86557 13.2476 2.35373L13.6919 2.79803C14.1801 3.28618 14.1801 4.07764 13.6919 4.56579L13.1819 5.07582L10.9698 2.86375L11.4798 2.35373ZM9.90915 3.92441L3.23644 10.5971L2.68342 13.3622L5.44851 12.8092L12.1212 6.13648L9.90915 3.92441ZM13.707 6.67197L6.3486 14.0304C6.24389 14.1351 6.11055 14.2065 5.96535 14.2355L1.87444 15.0537C1.62855 15.1029 1.37434 15.0259 1.19703 14.8486C1.01971 14.6713 0.942741 14.4171 0.99192 14.1712L1.8101 10.0803C1.83914 9.93508 1.91051 9.80173 2.01521 9.69703L10.4192 1.29307C11.4931 0.219124 13.2343 0.219125 14.3083 1.29307L14.7526 1.73737C15.8265 2.81131 15.8265 4.55251 14.7526 5.62645L13.7174 6.66164C13.7157 6.66338 13.714 6.66511 13.7122 6.66683C13.7105 6.66855 13.7088 6.67027 13.707 6.67197ZM0.15918 17.5908C0.15918 17.1766 0.494966 16.8408 0.90918 16.8408H17.2728C17.687 16.8408 18.0228 17.1766 18.0228 17.5908C18.0228 18.005 17.687 18.3408 17.2728 18.3408H0.90918C0.494966 18.3408 0.15918 18.005 0.15918 17.5908Z" fill="#1990FF"/>
</svg>
