<svg width="18" height="18" viewBox="0 0 18 18" fill="none" xmlns="http://www.w3.org/2000/svg">
  <path fill-rule="evenodd" clip-rule="evenodd"
    d="M2.56421 8.95173C2.57201 8.94516 2.57961 8.93836 2.587 8.93135C3.04634 8.52535 3.65026 8.27894 4.31185 8.27894H4.83268V13.4828H4.31185C2.87346 13.4828 1.70768 12.318 1.70768 10.8809C1.70768 10.1157 2.03812 9.42779 2.56421 8.95173ZM2.74935 7.58776V5.67612C2.74935 3.66447 4.38179 2.03344 6.39518 2.03344H11.6035C13.6169 2.03344 15.2493 3.66447 15.2493 5.67612V7.58776C14.7758 7.36302 14.246 7.23727 13.6868 7.23727H12.6452C12.3575 7.23727 12.1243 7.47026 12.1243 7.75766V14.0023C12.1243 14.2897 12.3575 14.5226 12.6452 14.5226H13.6868C15.7005 14.5226 17.3327 12.8919 17.3327 10.88C17.3327 9.88732 16.9354 8.98748 16.291 8.33049V5.67612C16.291 3.08967 14.1922 0.992676 11.6035 0.992676H6.39518C3.80649 0.992676 1.70768 3.08967 1.70768 5.67612V8.33049C1.0633 8.98748 0.666016 9.88732 0.666016 10.88C0.666016 12.3332 1.51756 13.5876 2.74935 14.1721V15.043C2.74935 16.4805 3.91483 17.6449 5.35352 17.6449H10.5618C10.8495 17.6449 11.0827 17.412 11.0827 17.1246C11.0827 16.8372 10.8495 16.6042 10.5618 16.6042H5.35352C4.49012 16.6042 3.79102 15.9057 3.79102 15.043V14.4858C3.96112 14.5101 4.13501 14.5226 4.31185 14.5226H5.35352C5.64116 14.5226 5.87435 14.2897 5.87435 14.0023V7.75766C5.87435 7.47026 5.64116 7.23727 5.35352 7.23727H4.31185C3.75267 7.23727 3.22291 7.36302 2.74935 7.58776ZM13.6868 8.27894C14.3484 8.27894 14.9524 8.52535 15.4117 8.93134C15.4191 8.93836 15.4267 8.94516 15.4345 8.95174C15.9606 9.42779 16.291 10.1157 16.291 10.8809C16.291 12.318 15.1252 13.4828 13.6868 13.4828H13.166V8.27894H13.6868Z"
    fill="#333333" />
</svg>