<svg xmlns="http://www.w3.org/2000/svg" width="24" height="24" viewBox="0 0 24 24">
    <path fill="#FFF" fill-rule="evenodd" d="M19.757 19.095l-3.945-4.102c1.015-1.206 1.57-2.723 1.57-4.302 0-3.69-3.001-6.691-6.69-6.691C7.001 4 4 7.002 4 10.691c0 3.69 3.002 6.691 6.691 6.691 1.385 0 2.705-.418 3.834-1.21l3.974 4.133c.166.172.39.267.629.267.226 0 .441-.086.605-.243.346-.334.357-.887.024-1.234zM10.69 5.745c2.727 0 4.946 2.22 4.946 4.946 0 2.727-2.219 4.946-4.946 4.946s-4.945-2.219-4.945-4.946 2.218-4.945 4.945-4.945z"/>
</svg>
